<?xml version="1.0" encoding="UTF-8" standalone="no"?>
<!DOCTYPE svg PUBLIC "-//W3C//DTD SVG 1.1//EN"
"http://www.w3.org/Graphics/SVG/1.1/DTD/svg11.dtd">
<svg viewBox="0 0 909 1286" version="1.1" xmlns="http://www.w3.org/2000/svg" xmlns:xlink="http://www.w3.org/1999/xlink">
<defs>
<style type="text/css"><![CDATA[
.g0{
fill: #FFFFFF;
}
.g1{
fill: none;
stroke: #000000;
stroke-width: 0.763;
stroke-linecap: butt;
stroke-linejoin: round;
}
]]></style>
</defs>
<path fill-rule="evenodd" d="M55,55.1H217V55H55v.1Z" class="g0"/>
<path fill-rule="evenodd" d="M55,105.6h.1V55.1H55v50.5Z" class="g0"/>
<image preserveAspectRatio="none" x="55" y="55" width="162" height="51" xlink:href="img/1.png"/>
<path d="M67.8,403.9H848.5M67.8,446.6H848.5M67.8,467H848.5M67.8,487.3H848.5M67.8,507.6H848.5M67.8,527.9H848.5M67.8,548.2H848.5M67.8,569.5H848.5M67.8,589.8H848.5M67.8,610.1H848.5M67.8,630.4H848.5M67.8,650.8H848.5M67.8,671.1H848.5M67.8,691.4H848.5M67.8,711.7H848.5M67.8,732H848.5M67.8,752.4H848.5M67.8,772.7H848.5M68.1,403.5V773.1M121.9,403.5V447m0,19.6v82m0,20.5V732.4M383.3,403.5V447m0,19.6v82m0,20.5v204M517.5,403.5V447m0,19.6v82m0,20.5V732.4M644.7,403.5V447m0,19.6v82m0,20.5v204M848.1,403.5V773.1" class="g1"/>
</svg>